# xmcd CD database file
#
# Track frame offsets:
#	150
#	20530
#	41201
#	61027
#	77573
#	94114
#	113951
#	135408
#	157937
#	177213
#
# Disc length: 2672 seconds
#
# Revision: 0
# Processed by: cddbd v1.5.1PL2 Copyright (c) Steve Scherf et al.
# Submitted via: CDex 1.51
#
DISCID=730a6e0a
DTITLE=Various Artist - Vamos Latin Hits Vol. 15
DYEAR=2004
DGENRE=Salsa
TTITLE0=Frank River - Fiesta En El Bronx
TTITLE1=Oscar Villon - Pa´l Bailador
TTITLE2=Frank River - Salsa Brava
TTITLE3=Oscar Villon - Bendicion
TTITLE4=Frank River - Yo Soy La Candela
TTITLE5=Frank River - Me Libere
TTITLE6=Oscar Villon - Naci Moreno
TTITLE7=Oscar Villon - Lady Laura
TTITLE8=Lucho - Aprende A Querer
TTITLE9=Frank River - Ahi Na Ma
EXTD=YEAR: 2004
EXTT0=
EXTT1=
EXTT2=
EXTT3=
EXTT4=
EXTT5=
EXTT6=
EXTT7=
EXTT8=
EXTT9=
PLAYORDER=
